<?xml version="1.0" encoding="utf-8"?>
<!-- Generator: Adobe Illustrator 18.1.1, SVG Export Plug-In . SVG Version: 6.00 Build 0)  -->
<!DOCTYPE svg PUBLIC "-//W3C//DTD SVG 1.1//EN" "http://www.w3.org/Graphics/SVG/1.1/DTD/svg11.dtd">
<svg version="1.1" id="Layer_1" xmlns="http://www.w3.org/2000/svg" xmlns:xlink="http://www.w3.org/1999/xlink" x="0px" y="0px"
	 width="800px" height="600px" viewBox="0 0 800 600" enable-background="new 0 0 800 600" xml:space="preserve">
<rect fill="#F5F7F7" width="800" height="600"/>
<g>
	<g>
		<polygon fill="#EBEDED" points="128,168 128,236 182,236 182,184.8 165.4,168 		"/>
	</g>
	<polyline fill="#FFFFFF" stroke="#5B6B75" stroke-width="3" stroke-linejoin="round" stroke-miterlimit="10" points="156.5,160 
		156.5,177.5 174,177.5 	"/>
	<g>
		<polygon fill="none" stroke="#5B6B75" stroke-width="3" stroke-linejoin="round" stroke-miterlimit="10" points="119.5,159.5 
			119.5,227.5 173.5,227.5 173.5,176.8 156.4,159.5 		"/>
	</g>
	
		<line fill="none" stroke="#FFB808" stroke-width="3" stroke-linecap="round" stroke-linejoin="round" stroke-miterlimit="10" x1="130" y1="191.5" x2="163" y2="191.5"/>
	
		<line fill="none" stroke="#FFB808" stroke-width="3" stroke-linecap="round" stroke-linejoin="round" stroke-miterlimit="10" x1="130" y1="202.5" x2="163" y2="202.5"/>
	
		<line fill="none" stroke="#FFB808" stroke-width="3" stroke-linecap="round" stroke-linejoin="round" stroke-miterlimit="10" x1="130" y1="213.5" x2="163" y2="213.5"/>
	<g>
		<path fill="#F5F7F7" d="M210.8,176.6l-4-4c-0.6-0.6-1.4-0.9-2.1-0.9s-1.5,0.3-2.1,0.9l-3.6,3.6l-1.8-1.8c-0.6-0.6-1.4-0.9-2.1-0.9
			c-0.8,0-1.5,0.3-2.1,0.9l-13.4,13.4c-0.6,0.6-0.9,1.3-0.9,2.1s0.3,1.6,0.9,2.1l1.8,1.8l-11.4,11.4c-0.3,0.3-0.6,0.7-0.7,1.2l-2,6
			c-0.4,1.1-0.1,2.3,0.7,3.1c0.6,0.6,1.3,0.9,2.1,0.9c0.3,0,0.6-0.1,0.9-0.2l3-1c2.9-1,4.2-1.4,4.7-2.3l32.1-32.1
			c0.6-0.6,0.9-1.3,0.9-2.1C211.7,177.9,211.4,177.1,210.8,176.6z"/>
		<g>
			<g>
				<g>
					
						<rect x="185.8" y="177.1" transform="matrix(0.7072 0.7071 -0.7071 0.7072 192.9058 -76.3305)" fill="#FFB808" width="5.7" height="35.2"/>
					
						<line fill="none" stroke="#5B6B75" stroke-width="3" stroke-linecap="round" stroke-linejoin="round" stroke-miterlimit="10" x1="195" y1="178.5" x2="183.6" y2="190"/>
					<polygon fill="#5B6B75" points="170,213.3 176,211.3 172,207.3 					"/>
				</g>
				
					<rect x="202.1" y="175.9" transform="matrix(0.7072 0.7071 -0.7071 0.7072 186.1422 -92.6573)" fill="#FFB808" width="5.7" height="4.9"/>
			</g>
		</g>
	</g>
</g>
<g>
	<rect x="286" y="174" fill="#EBEDED" width="73" height="61"/>
	<rect x="278.5" y="165.5" fill="#FFFFFF" width="72.5" height="10"/>
	
		<rect x="278.5" y="165.5" fill="none" stroke="#5B6B75" stroke-width="3" stroke-linejoin="round" stroke-miterlimit="10" width="73" height="61"/>
	
		<line fill="none" stroke="#5B6B75" stroke-width="3" stroke-linejoin="round" stroke-miterlimit="10" x1="278" y1="175.5" x2="351" y2="175.5"/>
	<circle fill="#5B6B75" cx="285.4" cy="170.6" r="1.6"/>
	<circle fill="#FFB808" cx="290.4" cy="170.6" r="1.6"/>
	<circle fill="#5B6B75" cx="295.4" cy="170.6" r="1.6"/>
	
		<rect x="285.5" y="183.5" fill="none" stroke="#5B6B75" stroke-width="3" stroke-linejoin="round" stroke-miterlimit="10" width="24" height="16"/>
	
		<rect x="319.5" y="183.5" fill="none" stroke="#5B6B75" stroke-width="3" stroke-linejoin="round" stroke-miterlimit="10" width="24" height="16"/>
	
		<line fill="none" stroke="#FFB808" stroke-width="3" stroke-linecap="round" stroke-linejoin="round" stroke-miterlimit="10" x1="286" y1="208.5" x2="309" y2="208.5"/>
	
		<line fill="none" stroke="#FFB808" stroke-width="3" stroke-linecap="round" stroke-linejoin="round" stroke-miterlimit="10" x1="286" y1="217.5" x2="309" y2="217.5"/>
	
		<line fill="none" stroke="#FFB808" stroke-width="3" stroke-linecap="round" stroke-linejoin="round" stroke-miterlimit="10" x1="320" y1="208.5" x2="343" y2="208.5"/>
	
		<line fill="none" stroke="#FFB808" stroke-width="3" stroke-linecap="round" stroke-linejoin="round" stroke-miterlimit="10" x1="320" y1="217.5" x2="343" y2="217.5"/>
	<g>
		<path fill="#F5F7F7" d="M386.6,218.1l-9.8-9.8c-0.1-0.1-0.3-0.3-0.5-0.4c5.2-8.3,4.2-19.4-3-26.6c-4.1-4.1-9.5-6.3-15.2-6.3
			c-5.7,0-11.1,2.2-15.2,6.3c-4.1,4.1-6.3,9.5-6.3,15.2c0,5.7,2.2,11.1,6.3,15.2c4.1,4.1,9.5,6.3,15.2,6.3c4.4,0,8.5-1.3,12-3.7
			c0.1,0.1,0.2,0.2,0.3,0.3l9.8,9.8c0.8,0.9,2,1.3,3.2,1.3c1.2,0,2.3-0.5,3.2-1.3c0.9-0.8,1.3-2,1.3-3.2
			C387.9,220.1,387.4,218.9,386.6,218.1z M358.1,209c-3.3,0-6.5-1.3-8.8-3.7c-4.9-4.9-4.9-12.8,0-17.7c2.4-2.4,5.5-3.7,8.8-3.7
			c3.3,0,6.5,1.3,8.8,3.7c4.9,4.9,4.9,12.8,0,17.7C364.6,207.7,361.5,209,358.1,209z"/>
		<g>
			<path fill="#FFB808" d="M358.1,215c-4.9,0-9.6-1.9-13.1-5.4c-7.2-7.2-7.2-18.9,0-26.2c3.5-3.5,8.1-5.4,13.1-5.4
				c4.9,0,9.6,1.9,13.1,5.4c7.2,7.2,7.2,18.9,0,26.2C367.7,213.1,363.1,215,358.1,215z M358.1,181c-4.1,0-8,1.6-11,4.5
				c-6,6-6,15.9,0,21.9c2.9,2.9,6.8,4.5,11,4.5c4.1,0,8-1.6,11-4.5c6-6,6-15.9,0-21.9C366.2,182.6,362.3,181,358.1,181z"/>
			<path fill="#5B6B75" d="M382.4,221.8c-0.4,0-0.8-0.1-1.1-0.4l-7.8-7.8c-0.6-0.6-0.6-1.5,0-2.1c0.6-0.6,1.5-0.6,2.1,0l7.8,7.8
				c0.6,0.6,0.6,1.5,0,2.1C383.2,221.6,382.8,221.8,382.4,221.8z"/>
		</g>
	</g>
</g>
<g>
	<circle fill="#EBEDED" cx="639.2" cy="204.5" r="34"/>
	
		<circle fill="none" stroke="#5B6B75" stroke-width="3" stroke-linecap="round" stroke-linejoin="round" stroke-miterlimit="10" cx="631.2" cy="196.5" r="34"/>
	<path fill="none" stroke="#FFFFFF" stroke-width="3" stroke-linecap="round" stroke-linejoin="round" stroke-miterlimit="10" d="
		M603.2,196.5c0-15.5,12.6-28,28-28"/>
	<path fill="none" stroke="#FFFFFF" stroke-width="3" stroke-linecap="round" stroke-linejoin="round" stroke-miterlimit="10" d="
		M659.3,196.5c0,15.5-12.6,28-28,28"/>
	<path fill="none" stroke="#FFB808" stroke-width="3" stroke-linecap="round" stroke-linejoin="round" stroke-miterlimit="10" d="
		M631.2,224.6c-15.5,0-28-12.6-28-28"/>
	<path fill="none" stroke="#FFB808" stroke-width="3" stroke-linecap="round" stroke-linejoin="round" stroke-miterlimit="10" d="
		M631.2,168.5c15.5,0,28,12.6,28,28"/>
	
		<line fill="none" stroke="#FFB808" stroke-width="3" stroke-linecap="round" stroke-linejoin="round" stroke-miterlimit="10" x1="631.2" y1="196.5" x2="631.2" y2="176.9"/>
	
		<line fill="none" stroke="#5B6B75" stroke-width="3" stroke-linecap="round" stroke-linejoin="round" stroke-miterlimit="10" x1="631.2" y1="196.5" x2="631.2" y2="183.4"/>
</g>
<g>
	<polyline fill="#EBEDED" points="505,181 505,193 524.5,236 467.5,236 486,193 486,181 	"/>
	<polygon fill="#FFB808" points="459.5,228 516.5,228 506.9,208 469.1,208 	"/>
	<polygon fill="#FFFFFF" points="482.5,181 482.5,185 465.3,223.5 469.3,223.5 486.5,185 486.5,181 	"/>
	<circle fill="#FFB808" cx="488" cy="176.4" r="2.8"/>
	
		<polyline fill="none" stroke="#5B6B75" stroke-width="3" stroke-linecap="round" stroke-linejoin="round" stroke-miterlimit="10" points="
		497.5,173 497.5,185 516.5,227.5 459.5,227.5 478.5,185 478.5,173 	"/>
	
		<line fill="none" stroke="#5B6B75" stroke-width="3" stroke-linecap="round" stroke-linejoin="round" stroke-miterlimit="10" x1="502" y1="167.5" x2="474" y2="167.5"/>
	<circle fill="#FFB808" cx="497.4" cy="150.8" r="5.7"/>
	<circle fill="#FFFFFF" cx="491.7" cy="214.3" r="0.9"/>
	<g>
		<path fill="#FFB808" d="M495.4,206c-1.1,0-2,0.9-2,2h4.1C497.4,206.9,496.5,206,495.4,206z"/>
		<path fill="#FFFFFF" d="M495.4,210c1.1,0,2-0.9,2-2h-4.1C493.3,209.1,494.3,210,495.4,210z"/>
	</g>
</g>
<g>
	<path fill="#EBEDED" d="M128,424.7c9.1,15.8,29.3,21.1,45,12c15.8-9.1,21.1-29.3,12-45c-9.1-15.8-29.3-21.1-45-12
		C124.3,388.8,118.9,408.9,128,424.7z"/>
	<path fill="none" stroke="#5B6B75" stroke-width="3" stroke-linejoin="round" stroke-miterlimit="10" d="M127.3,374.9
		c-13.9,11.7-15.8,32.5-4,46.4c11.7,13.9,32.5,15.8,46.4,4c13.9-11.7,15.8-32.5,4-46.4C162.1,365,141.3,363.2,127.3,374.9z"/>
	
		<line fill="none" stroke="#5B6B75" stroke-width="3" stroke-linecap="round" stroke-linejoin="round" stroke-miterlimit="10" x1="148.5" y1="358.7" x2="148.5" y2="356.2"/>
	
		<line fill="none" stroke="#5B6B75" stroke-width="3" stroke-linecap="round" stroke-linejoin="round" stroke-miterlimit="10" x1="162.8" y1="361.2" x2="163.6" y2="358.9"/>
	
		<line fill="none" stroke="#5B6B75" stroke-width="3" stroke-linecap="round" stroke-linejoin="round" stroke-miterlimit="10" x1="175.3" y1="368.4" x2="176.9" y2="366.5"/>
	
		<line fill="none" stroke="#5B6B75" stroke-width="3" stroke-linecap="round" stroke-linejoin="round" stroke-miterlimit="10" x1="184.5" y1="379.5" x2="186.7" y2="378.3"/>
	
		<line fill="none" stroke="#5B6B75" stroke-width="3" stroke-linecap="round" stroke-linejoin="round" stroke-miterlimit="10" x1="189.4" y1="393.1" x2="191.9" y2="392.7"/>
	
		<line fill="none" stroke="#5B6B75" stroke-width="3" stroke-linecap="round" stroke-linejoin="round" stroke-miterlimit="10" x1="189.4" y1="407.6" x2="191.8" y2="408"/>
	
		<line fill="none" stroke="#5B6B75" stroke-width="3" stroke-linecap="round" stroke-linejoin="round" stroke-miterlimit="10" x1="184.4" y1="421.1" x2="186.5" y2="422.4"/>
	
		<line fill="none" stroke="#FFB808" stroke-width="3" stroke-linecap="round" stroke-linejoin="round" stroke-miterlimit="10" x1="112.3" y1="420.6" x2="110.2" y2="421.8"/>
	
		<line fill="none" stroke="#FFB808" stroke-width="3" stroke-linecap="round" stroke-linejoin="round" stroke-miterlimit="10" x1="107.6" y1="406.9" x2="105.1" y2="407.3"/>
	
		<line fill="none" stroke="#FFB808" stroke-width="3" stroke-linecap="round" stroke-linejoin="round" stroke-miterlimit="10" x1="107.7" y1="392.5" x2="105.3" y2="392"/>
	
		<line fill="none" stroke="#FFB808" stroke-width="3" stroke-linecap="round" stroke-linejoin="round" stroke-miterlimit="10" x1="112.9" y1="378.9" x2="110.7" y2="377.7"/>
	
		<line fill="none" stroke="#FFB808" stroke-width="3" stroke-linecap="round" stroke-linejoin="round" stroke-miterlimit="10" x1="122.3" y1="368" x2="120.7" y2="366.1"/>
	
		<line fill="none" stroke="#5B6B75" stroke-width="3" stroke-linecap="round" stroke-linejoin="round" stroke-miterlimit="10" x1="134.9" y1="361" x2="134.1" y2="358.6"/>
	
		<line fill="none" stroke="#FFB808" stroke-width="3" stroke-linecap="round" stroke-linejoin="round" stroke-miterlimit="10" x1="136.4" y1="385.7" x2="132.5" y2="381"/>
	
		<circle fill="#FFFFFF" stroke="#5B6B75" stroke-width="3" stroke-linecap="round" stroke-linejoin="round" stroke-miterlimit="10" cx="148.5" cy="400.2" r="9.4"/>
</g>
<g>
	<polygon fill="#EBEDED" points="340.3,389.5 335.3,379.8 314.7,379.8 309.7,389.5 288.5,389.5 288.5,439.5 361.5,439.5 
		361.5,389.5 	"/>
	<rect x="278.5" y="379.5" fill="#FFFFFF" width="73" height="7.7"/>
	
		<rect x="278.5" y="379.5" fill="none" stroke="#5B6B75" stroke-width="3" stroke-linejoin="round" stroke-miterlimit="10" width="73" height="50"/>
	
		<line fill="none" stroke="#5B6B75" stroke-width="3" stroke-linejoin="round" stroke-miterlimit="10" x1="278.5" y1="387.2" x2="351.5" y2="387.2"/>
	
		<circle fill="none" stroke="#5B6B75" stroke-width="3" stroke-linejoin="round" stroke-miterlimit="10" cx="315" cy="408.6" r="14.3"/>
	<circle fill="#FFB808" cx="315" cy="408.6" r="9"/>
	<polygon fill="none" stroke="#5B6B75" stroke-width="3" stroke-linejoin="round" stroke-miterlimit="10" points="330.3,379.5 
		299.7,379.5 304.7,369.8 325.3,369.8 	"/>
	
		<line fill="none" stroke="#5B6B75" stroke-width="3" stroke-linecap="round" stroke-linejoin="round" stroke-miterlimit="10" x1="282.4" y1="371.9" x2="289.3" y2="371.9"/>
	<rect x="339.6" y="392.4" fill="#FFB808" width="6" height="2.9"/>
	<ellipse fill="#FFFFFF" cx="315" cy="404.8" rx="3.7" ry="2.8"/>
</g>
<g>
	
		<line fill="none" stroke="#EBEDED" stroke-width="3" stroke-linecap="round" stroke-miterlimit="10" x1="460.9" y1="383" x2="531.1" y2="383"/>
	
		<line fill="none" stroke="#EBEDED" stroke-width="3" stroke-linecap="round" stroke-miterlimit="10" x1="460.9" y1="426.3" x2="531.1" y2="426.3"/>
	
		<line fill="none" stroke="#EBEDED" stroke-width="3" stroke-linecap="round" stroke-miterlimit="10" x1="518" y1="404.6" x2="460.9" y2="404.6"/>
	
		<line fill="none" stroke="#5B6B75" stroke-width="3" stroke-linecap="round" stroke-linejoin="round" stroke-miterlimit="10" x1="452.9" y1="375" x2="523.1" y2="375"/>
	
		<line fill="none" stroke="#5B6B75" stroke-width="3" stroke-linecap="round" stroke-linejoin="round" stroke-miterlimit="10" x1="509.2" y1="396.6" x2="523.1" y2="396.6"/>
	
		<line fill="none" stroke="#5B6B75" stroke-width="3" stroke-linecap="round" stroke-linejoin="round" stroke-miterlimit="10" x1="452.9" y1="418.3" x2="523.1" y2="418.3"/>
	<path fill="#F5F7F7" d="M466,385.9c-6.2,0-11.2-5-11.2-11.2s5-11.2,11.2-11.2c6.2,0,11.2,5,11.2,11.2S472.2,385.9,466,385.9z"/>
	
		<circle fill="#FFFFFF" stroke="#5B6B75" stroke-width="3" stroke-linecap="round" stroke-linejoin="round" stroke-miterlimit="10" cx="466" cy="374.6" r="7.2"/>
	<path fill="#F5F7F7" d="M466,429.5c-6.2,0-11.2-5-11.2-11.2s5-11.2,11.2-11.2c6.2,0,11.2,5,11.2,11.2S472.2,429.5,466,429.5z"/>
	
		<circle fill="#FFFFFF" stroke="#5B6B75" stroke-width="3" stroke-linecap="round" stroke-linejoin="round" stroke-miterlimit="10" cx="466" cy="418.3" r="7.2"/>
	
		<line fill="none" stroke="#FFB808" stroke-width="3" stroke-linecap="round" stroke-linejoin="round" stroke-miterlimit="10" x1="510" y1="396.6" x2="452.9" y2="396.6"/>
	<path fill="#F5F7F7" d="M510,407.9c-6.2,0-11.2-5-11.2-11.2c0-6.2,5-11.2,11.2-11.2c6.2,0,11.2,5,11.2,11.2
		C521.2,402.8,516.2,407.9,510,407.9z"/>
	
		<circle fill="#FFFFFF" stroke="#5B6B75" stroke-width="3" stroke-linecap="round" stroke-linejoin="round" stroke-miterlimit="10" cx="510" cy="396.6" r="7.2"/>
</g>
<g>
	<path fill="#EBEDED" d="M661.9,385.7c-3.2-9.9-12.5-17.1-23.5-17.1c-11,0-20.3,7.2-23.5,17.1c-8.3,1.1-14.8,8.2-14.8,16.9
		c0,9.4,7.6,17.1,17.1,17.1h42.3c9.4,0,17.1-7.6,17.1-17.1C676.7,393.9,670.2,386.8,661.9,385.7z"/>
	<path fill="none" stroke="#5B6B75" stroke-width="3" stroke-linecap="round" stroke-linejoin="round" stroke-miterlimit="10" d="
		M655.4,379.2c-3.2-9.9-12.5-17.1-23.5-17.1c-11,0-20.3,7.2-23.5,17.1c-8.3,1.1-14.8,8.2-14.8,16.9c0,9.4,7.6,17.1,17.1,17.1h42.3
		c9.4,0,17.1-7.6,17.1-17.1C670.2,387.4,663.8,380.3,655.4,379.2z"/>
	
		<line fill="none" stroke="#5B6B75" stroke-width="3" stroke-linecap="round" stroke-linejoin="round" stroke-miterlimit="10" x1="618" y1="420.3" x2="618" y2="424"/>
	
		<line fill="none" stroke="#5B6B75" stroke-width="3" stroke-linecap="round" stroke-linejoin="round" stroke-miterlimit="10" x1="645.9" y1="420.3" x2="645.9" y2="424"/>
	
		<line fill="none" stroke="#5B6B75" stroke-width="3" stroke-linecap="round" stroke-linejoin="round" stroke-miterlimit="10" x1="618" y1="432.3" x2="618" y2="436"/>
	
		<line fill="none" stroke="#5B6B75" stroke-width="3" stroke-linecap="round" stroke-linejoin="round" stroke-miterlimit="10" x1="645.9" y1="432.3" x2="645.9" y2="436"/>
	<ellipse fill="#FFFFFF" cx="632" cy="374.2" rx="7.2" ry="5.8"/>
	<ellipse fill="#FFFFFF" cx="655" cy="391.6" rx="2.9" ry="2.3"/>
	<ellipse fill="#FFFFFF" cx="608.9" cy="391.6" rx="2.9" ry="2.3"/>
	<g>
		<path fill="#F5F7F7" d="M631.3,437c-0.4,0-0.9-0.1-1.3-0.2c-1.2-0.3-2.1-1.1-2.7-2.2c-0.6-1.1-0.7-2.3-0.3-3.4l1.6-5.4l-1.7-0.5
			c-1.2-0.3-2.1-1.1-2.7-2.2c-0.6-1.1-0.7-2.3-0.3-3.4l3.1-10.4c0.6-1.9,2.3-3.2,4.3-3.2c0.4,0,0.9,0.1,1.3,0.2
			c2.4,0.7,3.7,3.2,3,5.6l-1.8,6.1l1.7,0.5c1.2,0.3,2.1,1.1,2.7,2.2c0.6,1,0.7,2.3,0.3,3.4l-2.9,9.8
			C635.1,435.7,633.3,437,631.3,437z"/>
		<path fill="#FFB808" d="M631.3,434c-0.1,0-0.3,0-0.4-0.1c-0.8-0.2-1.2-1.1-1-1.9l2.5-8.3l-4.6-1.4c-0.4-0.1-0.7-0.4-0.9-0.7
			c-0.2-0.4-0.2-0.8-0.1-1.1l3.1-10.4c0.2-0.8,1.1-1.2,1.9-1c0.8,0.2,1.2,1.1,1,1.9l-2.7,9l4.6,1.4c0.4,0.1,0.7,0.4,0.9,0.7
			c0.2,0.3,0.2,0.8,0.1,1.1l-2.9,9.8C632.6,433.6,632,434,631.3,434z"/>
	</g>
</g>
</svg>
