<svg width="789" height="171" viewBox="0 0 789 171" version="1.1" xmlns="http://www.w3.org/2000/svg" xmlns:xlink="http://www.w3.org/1999/xlink">
<title>Group</title>
<desc>Created using Figma</desc>
<g id="Canvas" transform="translate(395 -721)">
<g id="Group" filter="url(#filter0_d)">
<g id="Rectangle 2">
<use xlink:href="#path0_fill" transform="translate(-242 791)" fill="#F5F7F7"/>
</g>
<g id="CHECK">
<g id="Ellipse">
<use xlink:href="#path1_fill" transform="translate(229 723)" fill="#F5F7F7"/>
</g>
<g id="check">
<g id="Vector">
<use xlink:href="#path2_fill" transform="translate(272 782.5)" fill="#EBEDED"/>
</g>
<g id="Vector">
<use xlink:href="#path3_fill" transform="translate(264.5 774)" fill="#FFFFFF"/>
</g>
<g id="Vector">
<use xlink:href="#path4_stroke" transform="translate(264.5 774)" fill="#5B6B75"/>
</g>
<g id="Vector">
<use xlink:href="#path5_stroke" transform="translate(264 784)" fill="#5B6B75"/>
</g>
<g id="Vector">
<use xlink:href="#path6_fill" transform="translate(269.8 777.5)" fill="#5B6B75"/>
</g>
<g id="Vector">
<use xlink:href="#path6_fill" transform="translate(274.8 777.5)" fill="#FFB808"/>
</g>
<g id="Vector">
<use xlink:href="#path6_fill" transform="translate(279.8 777.5)" fill="#5B6B75"/>
</g>
<g id="Vector">
<use xlink:href="#path7_stroke" transform="translate(271.5 792)" fill="#5B6B75"/>
</g>
<g id="Vector">
<use xlink:href="#path7_stroke" transform="translate(305.5 792)" fill="#5B6B75"/>
</g>
<g id="Vector">
<use xlink:href="#path8_stroke" transform="translate(272 817)" fill="#FFB808"/>
</g>
<g id="Vector">
<use xlink:href="#path8_stroke" transform="translate(272 826)" fill="#FFB808"/>
</g>
<g id="Vector">
<use xlink:href="#path8_stroke" transform="translate(306 817)" fill="#FFB808"/>
</g>
<g id="Vector">
<use xlink:href="#path8_stroke" transform="translate(306 826)" fill="#FFB808"/>
</g>
<g id="Group">
<g id="Vector">
<use xlink:href="#path9_fill" transform="translate(322.6 783.5)" fill="#F5F7F7"/>
</g>
<g id="Group">
<g id="Vector">
<use xlink:href="#path10_fill" transform="translate(325.6 786.5)" fill="#FFB808"/>
</g>
<g id="Vector">
<use xlink:href="#path11_fill" transform="translate(359.05 819.55)" fill="#5B6B75"/>
</g>
</g>
</g>
</g>
</g>
<g id="FAST">
<g id="Ellipse">
<use xlink:href="#path1_fill" transform="translate(-80 723)" fill="#F5F7F7"/>
</g>
<g id="fast">
<g id="Vector">
<use xlink:href="#path12_fill" transform="translate(-26.5228 780.055)" fill="#EBEDED"/>
</g>
<g id="Vector">
<use xlink:href="#path13_stroke" transform="translate(-34.5642 771.977)" fill="#5B6B75"/>
</g>
<g id="Vector">
<use xlink:href="#path14_stroke" transform="translate(-1.6 761)" fill="#5B6B75"/>
</g>
<g id="Vector">
<use xlink:href="#path15_stroke" transform="translate(12.7 763.7)" fill="#5B6B75"/>
</g>
<g id="Vector">
<use xlink:href="#path16_stroke" transform="translate(25.2 771.3)" fill="#5B6B75"/>
</g>
<g id="Vector">
<use xlink:href="#path17_stroke" transform="translate(34.4 783.1)" fill="#5B6B75"/>
</g>
<g id="Vector">
<use xlink:href="#path18_stroke" transform="translate(39.3 797.5)" fill="#5B6B75"/>
</g>
<g id="Vector">
<use xlink:href="#path19_stroke" transform="translate(39.3 812.4)" fill="#5B6B75"/>
</g>
<g id="Vector">
<use xlink:href="#path20_stroke" transform="translate(34.3 825.9)" fill="#5B6B75"/>
</g>
<g id="Vector">
<use xlink:href="#path21_stroke" transform="translate(-39.9 825.4)" fill="#FFB808"/>
</g>
<g id="Vector">
<use xlink:href="#path22_stroke" transform="translate(-45 811.7)" fill="#FFB808"/>
</g>
<g id="Vector">
<use xlink:href="#path23_stroke" transform="translate(-44.8 796.8)" fill="#FFB808"/>
</g>
<g id="Vector">
<use xlink:href="#path24_stroke" transform="translate(-39.4 782.5)" fill="#FFB808"/>
</g>
<g id="Vector">
<use xlink:href="#path25_stroke" transform="translate(-29.4 770.9)" fill="#FFB808"/>
</g>
<g id="Vector">
<use xlink:href="#path26_stroke" transform="translate(-16 763.4)" fill="#5B6B75"/>
</g>
<g id="Vector">
<use xlink:href="#path27_stroke" transform="translate(-17.6 785.8)" fill="#FFB808"/>
</g>
<g id="Vector">
<use xlink:href="#path28_fill" transform="translate(-11 795.6)" fill="#FFFFFF"/>
<use xlink:href="#path29_stroke" transform="translate(-11 795.6)" fill="#5B6B75"/>
</g>
</g>
</g>
<g id="CDC">
<g id="Ellipse">
<use xlink:href="#path1_fill" transform="translate(-389 723)" fill="#F5F7F7"/>
</g>
<g id="cdc">
<g id="Group">
<g id="Vector">
<use xlink:href="#path30_fill" transform="translate(-331.5 775.5)" fill="#EBEDED"/>
</g>
</g>
<g id="Vector">
<use xlink:href="#path31_fill" transform="translate(-303 767.5)" fill="#FFFFFF"/>
<use xlink:href="#path32_stroke" transform="translate(-303 767.5)" fill="#5B6B75"/>
</g>
<g id="Group">
<g id="Vector">
<use xlink:href="#path33_stroke" transform="translate(-340 767)" fill="#5B6B75"/>
</g>
</g>
<g id="Vector">
<use xlink:href="#path34_stroke" transform="translate(-329.5 799)" fill="#FFB808"/>
</g>
<g id="Vector">
<use xlink:href="#path34_stroke" transform="translate(-329.5 810)" fill="#FFB808"/>
</g>
<g id="Vector">
<use xlink:href="#path34_stroke" transform="translate(-329.5 821)" fill="#FFB808"/>
</g>
<g id="Group">
<g id="Vector">
<use xlink:href="#path35_fill" transform="translate(-292.376 779.2)" fill="#F5F7F7"/>
</g>
<g id="Group">
<g id="Group">
<g id="Group">
<g id="Vector">
<use xlink:href="#path36_fill" transform="matrix(0.7072 0.7071 -0.7071 0.7072 -260.424 787.794)" fill="#FFB808"/>
</g>
<g id="Vector">
<use xlink:href="#path37_stroke" transform="translate(-275.9 786)" fill="#5B6B75"/>
</g>
<g id="Vector">
<use xlink:href="#path38_fill" transform="translate(-289.5 814.8)" fill="#5B6B75"/>
</g>
</g>
<g id="Vector">
<use xlink:href="#path39_fill" transform="matrix(0.7072 0.7071 -0.7071 0.7072 -254.812 782.144)" fill="#FFB808"/>
</g>
</g>
</g>
</g>
</g>
</g>
</g>
</g>
<defs>
<filter id="filter0_d" filterUnits="userSpaceOnUse" x="-395" y="720" width="789" height="172" color-interpolation-filters="sRGB">
<feFlood flood-opacity="0" result="BackgroundImageFix"/>
<feColorMatrix in="SourceAlpha" type="matrix" values="0 0 0 0 0 0 0 0 0 0 0 0 0 0 0 0 0 0 255 0"/>
<feOffset dx="0" dy="4"/>
<feGaussianBlur stdDeviation="3"/>
<feColorMatrix type="matrix" values="0 0 0 0 0.101961 0 0 0 0 0.101961 0 0 0 0 0.101961 0 0 0 0.6 0"/>
<feBlend mode="normal" in2="BackgroundImageFix" result="effect1_dropShadow"/>
<feBlend mode="normal" in="SourceGraphic" in2="effect1_dropShadow" result="shape"/>
</filter>
<path id="path0_fill" d="M 0 0L 495 0L 495 19L 0 19L 0 0Z"/>
<path id="path1_fill" d="M 159 79.5C 159 123.407 123.407 159 79.5 159C 35.5934 159 0 123.407 0 79.5C 0 35.5934 35.5934 0 79.5 0C 123.407 0 159 35.5934 159 79.5Z"/>
<path id="path2_fill" d="M 73 0L 0 0L 0 61L 73 61L 73 0Z"/>
<path id="path3_fill" d="M 72.5 0L 0 0L 0 10L 72.5 10L 72.5 0Z"/>
<path id="path4_stroke" d="M 0 0L 0 -1.5C -0.828427 -1.5 -1.5 -0.828427 -1.5 3.33067e-16L 0 0ZM 73 0L 74.5 0C 74.5 -0.828427 73.8284 -1.5 73 -1.5L 73 0ZM 73 61L 73 62.5C 73.8284 62.5 74.5 61.8284 74.5 61L 73 61ZM 0 61L -1.5 61C -1.5 61.8284 -0.828427 62.5 3.33067e-16 62.5L 0 61ZM 0 1.5L 73 1.5L 73 -1.5L 0 -1.5L 0 1.5ZM 71.5 0L 71.5 61L 74.5 61L 74.5 0L 71.5 0ZM 73 59.5L 0 59.5L 0 62.5L 73 62.5L 73 59.5ZM 1.5 61L 1.5 0L -1.5 0L -1.5 61L 1.5 61Z"/>
<path id="path5_stroke" d="M 0 1.5L 73 1.5L 73 -1.5L 0 -1.5L 0 1.5Z"/>
<path id="path6_fill" d="M 1.59999 3.2C 2.48365 3.2 3.2 2.48366 3.2 1.60001C 3.2 0.71635 2.48365 0 1.59999 0C 0.716338 0 -1.2207e-05 0.71635 -1.2207e-05 1.60001C -1.2207e-05 2.48366 0.716338 3.2 1.59999 3.2Z"/>
<path id="path7_stroke" d="M 0 0L 0 -1.5C -0.828427 -1.5 -1.5 -0.828427 -1.5 3.33067e-16L 0 0ZM 24 0L 25.5 0C 25.5 -0.828427 24.8284 -1.5 24 -1.5L 24 0ZM 24 16L 24 17.5C 24.8284 17.5 25.5 16.8284 25.5 16L 24 16ZM 0 16L -1.5 16C -1.5 16.8284 -0.828427 17.5 3.33067e-16 17.5L 0 16ZM 0 1.5L 24 1.5L 24 -1.5L 0 -1.5L 0 1.5ZM 22.5 0L 22.5 16L 25.5 16L 25.5 0L 22.5 0ZM 24 14.5L 0 14.5L 0 17.5L 24 17.5L 24 14.5ZM 1.5 16L 1.5 0L -1.5 0L -1.5 16L 1.5 16Z"/>
<path id="path8_stroke" d="M 0 -1.5C -0.828427 -1.5 -1.5 -0.828427 -1.5 0C -1.5 0.828427 -0.828427 1.5 0 1.5L 0 -1.5ZM 23 1.5C 23.8284 1.5 24.5 0.828427 24.5 0C 24.5 -0.828427 23.8284 -1.5 23 -1.5L 23 1.5ZM 0 1.5L 23 1.5L 23 -1.5L 0 -1.5L 0 1.5Z"/>
<path id="path9_fill" d="M 50 43.1L 40.2 33.3C 40.1 33.2 39.9 33 39.7 32.9C 44.9 24.6 43.9 13.5 36.7 6.3C 32.6 2.2 27.2 2.84217e-14 21.5 2.84217e-14C 15.8 2.84217e-14 10.4 2.2 6.29999 6.3C 2.19999 10.4 6.10352e-06 15.8 6.10352e-06 21.5C 6.10352e-06 27.2 2.19999 32.6 6.29999 36.7C 10.4 40.8 15.8 43 21.5 43C 25.9 43 30 41.7 33.5 39.3C 33.6 39.4 33.7 39.5 33.8 39.6L 43.6 49.4C 44.4 50.3 45.6 50.7 46.8 50.7C 48 50.7 49.1 50.2 50 49.4C 50.9 48.6 51.3 47.4 51.3 46.2C 51.3 45.1 50.8 43.9 50 43.1ZM 21.5 34C 18.2 34 15 32.7 12.7 30.3C 7.79999 25.4 7.79999 17.5 12.7 12.6C 15.1 10.2 18.2 8.89999 21.5 8.89999C 24.8 8.89999 28 10.2 30.3 12.6C 35.2 17.5 35.2 25.4 30.3 30.3C 28 32.7 24.9 34 21.5 34Z"/>
<path id="path10_fill" d="M 18.5 37C 13.6 37 8.9 35.1 5.4 31.6C -1.8 24.4 -1.8 12.7 5.4 5.39999C 8.9 1.89999 13.5 0 18.5 0C 23.4 0 28.1 1.89999 31.6 5.39999C 38.8 12.6 38.8 24.3 31.6 31.6C 28.1 35.1 23.5 37 18.5 37ZM 18.5 3C 14.4 3 10.5 4.6 7.50001 7.5C 1.50001 13.5 1.50001 23.4 7.50001 29.4C 10.4 32.3 14.3 33.9 18.5 33.9C 22.6 33.9 26.5 32.3 29.5 29.4C 35.5 23.4 35.5 13.5 29.5 7.5C 26.6 4.6 22.7 3 18.5 3Z"/>
<path id="path11_fill" d="M 9.34999 10.75C 8.94999 10.75 8.54999 10.65 8.24999 10.35L 0.45 2.55001C -0.15 1.95001 -0.15 1.05 0.45 0.45C 1.05 -0.15 1.95001 -0.15 2.55001 0.45L 10.35 8.25C 10.95 8.85 10.95 9.74999 10.35 10.35C 10.15 10.55 9.74999 10.75 9.34999 10.75Z"/>
<path id="path12_fill" d="M 4.42279 49.4447C 13.5228 65.2447 33.7228 70.5447 49.4228 61.4447C 65.2228 52.3447 70.5228 32.1447 61.4228 16.4447C 52.3228 0.644711 32.1228 -4.65529 16.4228 4.44471C 0.722795 13.5447 -4.67721 33.6447 4.42279 49.4447Z"/>
<path id="path13_stroke" d="M 11.7642 7.72293L 10.8023 6.57194L 10.7982 6.57535L 11.7642 7.72293ZM 7.76417 54.1229L 8.91176 53.157L 8.90768 53.1522L 7.76417 54.1229ZM 54.1642 58.1229L 53.1982 56.9753L 53.1934 56.9794L 54.1642 58.1229ZM 58.1642 11.7229L 57.0125 12.6841L 57.0206 12.6937L 58.1642 11.7229ZM 10.7982 6.57535C -3.72889 18.8032 -5.7243 40.5518 6.62065 55.0937L 8.90768 53.1522C -2.34737 39.8941 -0.542781 20.0427 12.7301 8.87051L 10.7982 6.57535ZM 6.61658 55.0889C 18.8444 69.616 40.593 71.6114 55.1349 59.2664L 53.1934 56.9794C 39.9353 68.2345 20.0839 66.4299 8.91175 53.157L 6.61658 55.0889ZM 55.1301 59.2705C 69.6572 47.0427 71.6526 25.2941 59.3077 10.7522L 57.0206 12.6937C 68.2757 25.9518 66.4711 45.8032 53.1982 56.9753L 55.1301 59.2705ZM 59.3158 10.7618C 47.1784 -3.78212 25.4306 -5.65317 10.8023 6.57195L 12.7261 8.87392C 26.0977 -2.30096 45.9499 -0.572013 57.0125 12.684L 59.3158 10.7618Z"/>
<path id="path14_stroke" d="M -1.5 2.50001C -1.5 3.32844 -0.828427 4.00001 0 4.00001C 0.828427 4.00001 1.5 3.32844 1.5 2.50001L -1.5 2.50001ZM 1.5 1.2207e-05C 1.5 -0.828415 0.828427 -1.49999 0 -1.49999C -0.828427 -1.49999 -1.5 -0.828415 -1.5 1.2207e-05L 1.5 1.2207e-05ZM 1.5 2.50001L 1.5 1.2207e-05L -1.5 1.2207e-05L -1.5 2.50001L 1.5 2.50001Z"/>
<path id="path15_stroke" d="M -1.41674 1.80723C -1.6889 2.58968 -1.27522 3.4446 -0.492776 3.71676C 0.289671 3.98891 1.14459 3.57524 1.41675 2.79279L -1.41674 1.80723ZM 2.21675 0.492773C 2.48891 -0.289674 2.07523 -1.1446 1.29279 -1.41675C 0.510338 -1.68891 -0.344585 -1.27523 -0.61674 -0.492785L 2.21675 0.492773ZM 1.41675 2.79279L 2.21675 0.492773L -0.61674 -0.492785L -1.41674 1.80723L 1.41675 2.79279Z"/>
<path id="path16_stroke" d="M -1.14736 0.933792C -1.68098 1.56747 -1.59987 2.51374 -0.966199 3.04736C -0.332525 3.58098 0.613752 3.49987 1.14737 2.8662L -1.14736 0.933792ZM 2.74736 0.966202C 3.28098 0.332528 3.19987 -0.613749 2.5662 -1.14737C 1.93252 -1.68099 0.986245 -1.59988 0.452626 -0.966202L 2.74736 0.966202ZM 1.14737 2.8662L 2.74736 0.966202L 0.452626 -0.966202L -1.14736 0.933792L 1.14737 2.8662Z"/>
<path id="path17_stroke" d="M -0.718285 -0.11684C -1.44556 0.279858 -1.71354 1.19101 -1.31684 1.91828C -0.920142 2.64556 -0.00898595 2.91354 0.718285 2.51684L -0.718285 -0.11684ZM 2.91828 1.31683C 3.64555 0.92013 3.91353 0.00897375 3.51684 -0.718297C 3.12014 -1.44557 2.20898 -1.71355 1.48171 -1.31685L 2.91828 1.31683ZM 0.718285 2.51684L 2.91828 1.31683L 1.48171 -1.31685L -0.718285 -0.11684L 0.718285 2.51684Z"/>
<path id="path18_stroke" d="M -0.236988 -1.08116C -1.05501 -0.950274 -1.61205 -0.181035 -1.48117 0.636988C -1.35029 1.45501 -0.581047 2.01205 0.236976 1.88117L -0.236988 -1.08116ZM 2.73698 1.48117C 3.555 1.35029 4.11204 0.581053 3.98116 -0.23697C 3.85027 -1.05499 3.08103 -1.61203 2.26301 -1.48115L 2.73698 1.48117ZM 0.236976 1.88117L 2.73698 1.48117L 2.26301 -1.48115L -0.236988 -1.08116L 0.236976 1.88117Z"/>
<path id="path19_stroke" d="M 0.246588 -1.47959C -0.570568 -1.61578 -1.34341 -1.06374 -1.4796 -0.246588C -1.61579 0.570568 -1.06376 1.34341 -0.2466 1.4796L 0.246588 -1.47959ZM 2.15341 1.87959C 2.97056 2.01578 3.7434 1.46375 3.87959 0.646594C 4.01578 -0.170562 3.46375 -0.943402 2.6466 -1.07959L 2.15341 1.87959ZM -0.2466 1.4796L 2.15341 1.87959L 2.6466 -1.07959L 0.246588 -1.47959L -0.2466 1.4796Z"/>
<path id="path20_stroke" d="M 0.789519 -1.2754C 0.0851337 -1.71144 -0.839366 -1.4939 -1.27541 -0.789519C -1.71145 -0.0851337 -1.49392 0.839366 -0.789531 1.27541L 0.789519 -1.2754ZM 1.31047 2.5754C 2.01486 3.01144 2.93936 2.7939 3.3754 2.08952C 3.81144 1.38513 3.59391 0.460634 2.88952 0.0245918L 1.31047 2.5754ZM -0.789531 1.27541L 1.31047 2.5754L 2.88952 0.0245918L 0.789519 -1.2754L -0.789531 1.27541Z"/>
<path id="path21_stroke" d="M 2.8442 1.30238C 3.56348 0.891367 3.81338 -0.0249127 3.40237 -0.744192C 2.99136 -1.46347 2.07508 -1.71337 1.3558 -1.30236L 2.8442 1.30238ZM -0.744201 -0.102383C -1.46348 0.308627 -1.71338 1.22491 -1.30237 1.94419C -0.891364 2.66347 0.0249158 2.91337 0.744195 2.50236L -0.744201 -0.102383ZM 1.3558 -1.30236L -0.744201 -0.102383L 0.744195 2.50236L 2.8442 1.30238L 1.3558 -1.30236Z"/>
<path id="path22_stroke" d="M 2.73698 1.48116C 3.555 1.35027 4.11204 0.581035 3.98116 -0.236988C 3.85028 -1.05501 3.08104 -1.61205 2.26302 -1.48117L 2.73698 1.48116ZM -0.236984 -1.08117C -1.05501 -0.950292 -1.61204 -0.181053 -1.48116 0.63697C -1.35028 1.45499 -0.581042 2.01203 0.236981 1.88115L -0.236984 -1.08117ZM 2.26302 -1.48117L -0.236984 -1.08117L 0.236981 1.88115L 2.73698 1.48116L 2.26302 -1.48117Z"/>
<path id="path23_stroke" d="M 2.09406 1.96847C 2.90508 2.13743 3.69951 1.61695 3.86847 0.805932C 4.03743 -0.00508173 3.51694 -0.799509 2.70593 -0.96847L 2.09406 1.96847ZM 0.305935 -1.46847C -0.505079 -1.63743 -1.29951 -1.11695 -1.46847 -0.305932C -1.63743 0.505082 -1.11694 1.29951 -0.305929 1.46847L 0.305935 -1.46847ZM 2.70593 -0.96847L 0.305935 -1.46847L -0.305929 1.46847L 2.09406 1.96847L 2.70593 -0.96847Z"/>
<path id="path24_stroke" d="M 1.48173 2.51684C 2.20901 2.91353 3.12016 2.64554 3.51685 1.91826C 3.91354 1.19099 3.64555 0.279834 2.91827 -0.116855L 1.48173 2.51684ZM 0.718266 -1.31684C -0.00900986 -1.71353 -0.920163 -1.44553 -1.31685 -0.718256C -1.71354 0.00901902 -1.44555 0.920172 -0.718272 1.31686L 0.718266 -1.31684ZM 2.91827 -0.116855L 0.718266 -1.31684L -0.718272 1.31686L 1.48173 2.51684L 2.91827 -0.116855Z"/>
<path id="path25_stroke" d="M 0.45264 2.86621C 0.986261 3.49988 1.93254 3.58099 2.56621 3.04736C 3.19988 2.51374 3.28099 1.56746 2.74737 0.933792L 0.45264 2.86621ZM 1.14736 -0.966201C 0.613739 -1.59987 -0.332539 -1.68098 -0.966211 -1.14736C -1.59988 -0.613736 -1.68099 0.332542 -1.14737 0.966214L 1.14736 -0.966201ZM 2.74737 0.933792L 1.14736 -0.966201L -1.14737 0.966214L 0.45264 2.86621L 2.74737 0.933792Z"/>
<path id="path26_stroke" d="M -0.623033 2.87434C -0.361064 3.66025 0.488414 4.085 1.27433 3.82303C 2.06025 3.56106 2.48499 2.71158 2.22302 1.92566L -0.623033 2.87434ZM 1.42303 -0.47433C 1.16106 -1.26025 0.311586 -1.68499 -0.47433 -1.42302C -1.26025 -1.16105 -1.68499 -0.311574 -1.42302 0.474342L 1.42303 -0.47433ZM 2.22302 1.92566L 1.42303 -0.47433L -1.42302 0.474342L -0.623033 2.87434L 2.22302 1.92566Z"/>
<path id="path27_stroke" d="M 2.74565 5.65787C 3.27466 6.2954 4.22032 6.38337 4.85785 5.85436C 5.49538 5.32535 5.58335 4.37968 5.05434 3.74216L 2.74565 5.65787ZM 1.15434 -0.957856C 0.625335 -1.59538 -0.320329 -1.68335 -0.957856 -1.15434C -1.59538 -0.625335 -1.68335 0.320329 -1.15434 0.957856L 1.15434 -0.957856ZM 5.05434 3.74216L 1.15434 -0.957856L -1.15434 0.957856L 2.74565 5.65787L 5.05434 3.74216Z"/>
<path id="path28_fill" d="M 9.4 18.8C 14.5915 18.8 18.8 14.5915 18.8 9.40001C 18.8 4.20854 14.5915 -1.2207e-05 9.4 -1.2207e-05C 4.20852 -1.2207e-05 6.10352e-06 4.20854 6.10352e-06 9.40001C 6.10352e-06 14.5915 4.20852 18.8 9.4 18.8Z"/>
<path id="path29_stroke" d="M 17.3 9.40001C 17.3 13.7631 13.763 17.3 9.4 17.3L 9.4 20.3C 15.4199 20.3 20.3 15.4199 20.3 9.40001L 17.3 9.40001ZM 9.4 17.3C 5.03695 17.3 1.50001 13.7631 1.50001 9.40001L -1.49999 9.40001C -1.49999 15.4199 3.3801 20.3 9.4 20.3L 9.4 17.3ZM 1.50001 9.40001C 1.50001 5.03696 5.03696 1.49999 9.4 1.49999L 9.4 -1.50001C 3.38009 -1.50001 -1.49999 3.38011 -1.49999 9.40001L 1.50001 9.40001ZM 9.4 1.49999C 13.763 1.49999 17.3 5.03696 17.3 9.40001L 20.3 9.40001C 20.3 3.38011 15.4199 -1.50001 9.4 -1.50001L 9.4 1.49999Z"/>
<path id="path30_fill" d="M 0 0L 0 68L 54 68L 54 16.8L 37.4 0L 0 0Z"/>
<path id="path31_fill" d="M 0 0L 0 17.5L 17.5 17.5"/>
<path id="path32_stroke" d="M 0 17.5L -1.5 17.5C -1.5 18.3284 -0.828427 19 3.33067e-16 19L 0 17.5ZM -1.5 0L -1.5 17.5L 1.5 17.5L 1.5 0L -1.5 0ZM 0 19L 17.5 19L 17.5 16L 0 16L 0 19Z"/>
<path id="path33_stroke" d="M 0 0L 0 -1.5C -0.828427 -1.5 -1.5 -0.828427 -1.5 3.33067e-16L 0 0ZM 0 68L -1.5 68C -1.5 68.8284 -0.828427 69.5 3.33067e-16 69.5L 0 68ZM 54 68L 54 69.5C 54.8284 69.5 55.5 68.8284 55.5 68L 54 68ZM 54 17.3L 55.5 17.3C 55.5 16.9052 55.3443 16.5263 55.0668 16.2455L 54 17.3ZM 36.9 0L 37.9668 -1.05448C 37.685 -1.33956 37.3008 -1.5 36.9 -1.5L 36.9 0ZM -1.5 0L -1.5 68L 1.5 68L 1.5 0L -1.5 0ZM 0 69.5L 54 69.5L 54 66.5L 0 66.5L 0 69.5ZM 55.5 68L 55.5 17.3L 52.5 17.3L 52.5 68L 55.5 68ZM 55.0668 16.2455L 37.9668 -1.05448L 35.8332 1.05448L 52.9332 18.3545L 55.0668 16.2455ZM 36.9 -1.5L 0 -1.5L 0 1.5L 36.9 1.5L 36.9 -1.5Z"/>
<path id="path34_stroke" d="M 0 -1.5C -0.828427 -1.5 -1.5 -0.828427 -1.5 0C -1.5 0.828427 -0.828427 1.5 0 1.5L 0 -1.5ZM 33 1.5C 33.8284 1.5 34.5 0.828427 34.5 0C 34.5 -0.828427 33.8284 -1.5 33 -1.5L 33 1.5ZM 0 1.5L 33 1.5L 33 -1.5L 0 -1.5L 0 1.5Z"/>
<path id="path35_fill" d="M 43.6764 4.90001L 39.6764 0.900006C 39.0764 0.300006 38.2764 -3.05176e-06 37.5764 -3.05176e-06C 36.8764 -3.05176e-06 36.0764 0.300006 35.4764 0.900006L 31.8764 4.5L 30.0764 2.69999C 29.4764 2.09999 28.6764 1.8 27.9764 1.8C 27.1764 1.8 26.4764 2.09999 25.8764 2.69999L 12.4764 16.1C 11.8764 16.7 11.5764 17.4 11.5764 18.2C 11.5764 19 11.8764 19.8 12.4764 20.3L 14.2764 22.1L 2.8764 33.5C 2.5764 33.8 2.27641 34.2 2.17641 34.7L 0.176408 40.7C -0.223592 41.8 0.0764047 43 0.876405 43.8C 1.4764 44.4 2.17641 44.7 2.97641 44.7C 3.27641 44.7 3.5764 44.6 3.8764 44.5L 6.8764 43.5C 9.77641 42.5 11.0764 42.1 11.5764 41.2L 43.6764 9.1C 44.2764 8.5 44.5764 7.8 44.5764 7C 44.5764 6.2 44.2764 5.40001 43.6764 4.90001Z"/>
<path id="path36_fill" d="M 5.7 6.10352e-06L 3.05176e-06 6.10352e-06L 3.05176e-06 35.2L 5.7 35.2L 5.7 6.10352e-06Z"/>
<path id="path37_stroke" d="M 12.4653 1.05602C 13.0485 0.467679 13.0444 -0.482059 12.456 -1.06528C 11.8677 -1.6485 10.9179 -1.64436 10.3347 -1.05602L 12.4653 1.05602ZM -1.06528 10.444C -1.6485 11.0323 -1.64435 11.9821 -1.05601 12.5653C -0.467673 13.1485 0.482065 13.1444 1.06529 12.556L -1.06528 10.444ZM 10.3347 -1.05602L -1.06528 10.444L 1.06529 12.556L 12.4653 1.05602L 10.3347 -1.05602Z"/>
<path id="path38_fill" d="M 0 6L 6 4L 2 3.05176e-06L 0 6Z"/>
<path id="path39_fill" d="M 5.7 -6.10352e-06L 6.10352e-06 -6.10352e-06L 6.10352e-06 4.9L 5.7 4.9L 5.7 -6.10352e-06Z"/>
</defs>
</svg>
